<?xml version="1.0" encoding="utf-8"?>
<!-- Generator: Adobe Illustrator 21.0.2, SVG Export Plug-In . SVG Version: 6.00 Build 0)  -->
<svg version="1.1" id="Layer_1" xmlns="http://www.w3.org/2000/svg" xmlns:xlink="http://www.w3.org/1999/xlink" x="0px" y="0px"
	 viewBox="0 0 19.2 19.4" style="enable-background:new 0 0 19.2 19.4;" xml:space="preserve">
<style type="text/css">
	.st0{fill:#FFFFFF;}
</style>
<g>
	<g>
		<path class="st0" d="M17.7,3.9c0-0.6,0-1.3,0.1-1.7c-0.3,0.4-0.6,0.7-0.9,1l-5.4,5.4l-0.3-0.3l5.4-5.4c0.3-0.3,0.7-0.6,1-0.9
			C17.1,2,16.4,2.1,15.8,2l-0.5-0.5c0.3,0,0.6,0,0.8,0.1c0.6,0,1.3,0,2-0.2l0,0c-0.1,0.7-0.2,1.4-0.2,2c0,0.3,0,0.6,0.1,0.9
			L17.7,3.9z"/>
	</g>
	<g>
		<path class="st0" d="M16,17.3c0.6,0,1.3,0,1.7,0.1c-0.4-0.3-0.7-0.6-1-0.9l-5.4-5.4l0.3-0.3l5.4,5.4c0.3,0.3,0.6,0.7,0.9,1
			c-0.1-0.5-0.1-1.1-0.1-1.7l0.5-0.5c0,0.3,0,0.6-0.1,0.8c0,0.6,0,1.3,0.2,2l0,0c-0.7-0.1-1.4-0.2-2-0.2c-0.3,0-0.6,0-0.9,0.1
			L16,17.3z"/>
	</g>
	<g>
		<path class="st0" d="M1.4,15.5c0,0.6,0,1.3-0.1,1.7c0.3-0.4,0.6-0.7,0.9-1l5.4-5.4l0.3,0.3l-5.4,5.4c-0.3,0.3-0.7,0.6-1,0.9
			c0.5-0.1,1.1-0.1,1.7-0.1l0.5,0.5c-0.3,0-0.6,0-0.8-0.1c-0.6,0-1.3,0-2,0.2l0,0c0.1-0.7,0.2-1.4,0.2-2c0-0.3,0-0.6-0.1-0.9
			L1.4,15.5z"/>
	</g>
	<g>
		<path class="st0" d="M3.2,2.1C2.6,2.1,2,2.1,1.5,2c0.4,0.3,0.7,0.6,1,0.9l5.4,5.4L7.5,8.6L2.2,3.2c-0.3-0.3-0.6-0.7-0.9-1
			c0.1,0.5,0.1,1.1,0.1,1.7L0.9,4.4c0-0.3,0-0.6,0.1-0.8c0-0.6,0-1.3-0.2-2l0,0c0.7,0.1,1.4,0.2,2,0.2c0.3,0,0.6,0,0.9-0.1L3.2,2.1z
			"/>
	</g>
</g>
</svg>
