<?xml version="1.0" encoding="utf-8"?>
<!-- Generator: Adobe Illustrator 21.0.2, SVG Export Plug-In . SVG Version: 6.00 Build 0)  -->
<svg version="1.1" id="Layer_1" xmlns="http://www.w3.org/2000/svg" xmlns:xlink="http://www.w3.org/1999/xlink" x="0px" y="0px"
	 viewBox="0 0 19.2 19.4" style="enable-background:new 0 0 19.2 19.4;" xml:space="preserve">
<style type="text/css">
	.st0{fill:#FFFFFF;}
</style>
<g>
	<path class="st0" d="M15.4,4.5c0.3-0.3,0.7-0.7,1.2-1.1c-0.6,0.1-1.2,0.2-2,0.2s-1.5-0.1-2.4-0.2l0.1-0.6C13.3,2.9,14.2,3,15,3
		c0.8,0,1.6-0.1,2.5-0.2l0,0c-0.1,0.9-0.2,1.7-0.2,2.5c0,0.8,0.1,1.7,0.3,2.6L17,8c-0.1-0.9-0.2-1.7-0.2-2.4s0-1.4,0.2-2
		c-0.4,0.4-0.7,0.8-1.1,1.2l-3.6,3.6l-0.4-0.4L15.4,4.5z"/>
</g>
<g>
	<path class="st0" d="M3.4,4.9C3.1,4.6,2.7,4.2,2.3,3.7c0.1,0.6,0.2,1.2,0.2,2S2.4,7.2,2.2,8L1.6,8c0.2-1,0.3-1.8,0.3-2.6
		S1.9,3.7,1.7,2.9l0,0C2.7,3,3.5,3,4.3,3c0.8,0,1.7-0.1,2.6-0.3L7,3.3C6.1,3.4,5.3,3.5,4.6,3.5s-1.4,0-2-0.2C3,3.7,3.4,4.1,3.8,4.5
		l3.6,3.6L7,8.5L3.4,4.9z"/>
</g>
<g>
	<path class="st0" d="M3.8,16c-0.3,0.3-0.7,0.7-1.2,1.1C3.2,17,3.8,17,4.6,17s1.5,0.1,2.4,0.2l-0.1,0.6c-1-0.2-1.8-0.3-2.6-0.3
		s-1.6,0.1-2.5,0.2l0,0c0.1-0.9,0.2-1.7,0.2-2.5c0-0.8-0.1-1.7-0.3-2.6l0.6-0.1c0.1,0.9,0.2,1.7,0.2,2.4c0,0.7,0,1.4-0.2,2
		C2.6,16.4,3,16,3.4,15.6L7,12l0.4,0.4L3.8,16z"/>
</g>
<g>
	<path class="st0" d="M15.9,15.6c0.3,0.3,0.7,0.7,1.1,1.2c-0.1-0.6-0.2-1.2-0.2-2c0-0.7,0.1-1.5,0.2-2.4l0.6,0.1
		c-0.2,1-0.3,1.8-0.3,2.6c0,0.8,0.1,1.6,0.2,2.5l0,0c-0.9-0.1-1.7-0.2-2.5-0.2c-0.8,0-1.7,0.1-2.6,0.3l-0.1-0.6
		c0.9-0.1,1.7-0.2,2.4-0.2s1.4,0,2,0.2c-0.4-0.4-0.8-0.7-1.2-1.1l-3.6-3.6l0.4-0.4L15.9,15.6z"/>
</g>
</svg>
