<?xml version="1.0" encoding="utf-8"?>
<!-- Generator: Adobe Illustrator 21.0.2, SVG Export Plug-In . SVG Version: 6.00 Build 0)  -->
<svg version="1.1" id="Layer_1" xmlns="http://www.w3.org/2000/svg" xmlns:xlink="http://www.w3.org/1999/xlink" x="0px" y="0px"
	 viewBox="0 0 19.2 50" style="enable-background:new 0 0 19.2 50;" xml:space="preserve">
<style type="text/css">
	.st0{fill:#FFFFFF;}
</style>
<g>
	<path class="st0" d="M6.7,25.7c-1.1,0-2.4-0.1-3.9-0.2c1.1,0.7,2.3,1.7,3.6,3s2.4,2.7,3.6,4.4l-1.1,0.9c-1.3-1.9-2.6-3.5-3.8-4.9
		s-2.8-2.6-4.5-3.9v-0.1c1.7-1.2,3.2-2.5,4.5-3.8c1.3-1.3,2.6-3,3.8-4.9l1.1,0.9c-1.2,1.7-2.4,3.1-3.6,4.4c-1.2,1.3-2.4,2.3-3.6,3
		c1.3-0.1,2.6-0.1,3.9-0.1h12v1.4H6.7z"/>
</g>
</svg>
