<?xml version="1.0" encoding="utf-8"?>
<!-- Generator: Adobe Illustrator 21.0.2, SVG Export Plug-In . SVG Version: 6.00 Build 0)  -->
<svg version="1.1" id="Layer_1" xmlns="http://www.w3.org/2000/svg" xmlns:xlink="http://www.w3.org/1999/xlink" x="0px" y="0px"
	 viewBox="0 0 19.2 50" style="enable-background:new 0 0 19.2 50;" xml:space="preserve">
<style type="text/css">
	.st0{fill:#FFFFFF;}
</style>
<g>
	<path class="st0" d="M12.5,24.3c1.1,0,2.4,0.1,3.9,0.2c-1.1-0.7-2.3-1.7-3.6-3s-2.4-2.7-3.6-4.4l1.1-0.9c1.3,1.9,2.6,3.5,3.8,4.9
		s2.8,2.6,4.5,3.9v0.1c-1.7,1.2-3.2,2.5-4.5,3.8c-1.3,1.3-2.6,3-3.8,4.9l-1.1-0.9c1.2-1.7,2.4-3.1,3.6-4.4c1.2-1.3,2.4-2.3,3.6-3
		c-1.3,0.1-2.6,0.1-3.9,0.1h-12v-1.4H12.5z"/>
</g>
</svg>
