<?xml version="1.0" encoding="utf-8"?>
<!-- Generator: Adobe Illustrator 21.0.2, SVG Export Plug-In . SVG Version: 6.00 Build 0)  -->
<svg version="1.1" id="Layer_1" xmlns="http://www.w3.org/2000/svg" xmlns:xlink="http://www.w3.org/1999/xlink" x="0px" y="0px"
	 viewBox="0 0 28.4 50" style="enable-background:new 0 0 28.4 50;" xml:space="preserve">
<style type="text/css">
	.st0{fill:#FFFFFF;}
</style>
<g>
	<path class="st0" d="M6.4,21.3c-1.2,1.2-2.6,2.5-3.7,3.2c1.5-0.1,2.7-0.2,3.8-0.2h21.6v1.3H6.5c-1.3,0-2.6,0-3.8-0.1
		c1.1,0.7,2.5,1.9,3.7,3.2l0,1.9c-0.5-0.6-1-1.2-1.6-1.8c-1.3-1.3-2.7-2.6-4.4-3.8V25c1.7-1.2,3.1-2.5,4.4-3.8
		c0.5-0.6,1.1-1.2,1.6-1.8L6.4,21.3z"/>
</g>
</svg>
